<svg width="64" height="64" viewBox="0 0 64 64" fill="none" xmlns="http://www.w3.org/2000/svg">
<g clip-path="url(#clip0_86_49)">
<path d="M22.4541 54.0937L30.9393 62.579C31.2206 62.8603 31.6022 63.0183 32 63.0183C32.3978 63.0183 32.7794 62.8603 33.0607 62.579L41.5459 54.0937C41.7564 53.884 41.8998 53.6166 41.9581 53.3253C42.0163 53.034 41.9868 52.732 41.8731 52.4575C41.7595 52.183 41.567 51.9484 41.3199 51.7835C41.0728 51.6186 40.7823 51.5308 40.4853 51.5311L33.4998 51.5333L33.5019 2.12135H30.4981L30.5002 51.5333L23.5147 51.5311C23.2177 51.5308 22.9272 51.6186 22.6801 51.7835C22.433 51.9484 22.2405 52.183 22.1269 52.4575C22.0132 52.732 21.9837 53.034 22.0419 53.3253C22.1002 53.6166 22.2436 53.884 22.4541 54.0937Z" fill="black"/>
</g>
<defs>
<clipPath id="clip0_86_49">
<rect width="45" height="45" fill="white" transform="translate(32 63.6396) rotate(-135)"/>
</clipPath>
</defs>
</svg>
